<svg data-v-423bf9ae="" xmlns="http://www.w3.org/2000/svg" viewBox="0 0 336 90" class="iconLeft"><!----><!----><!----><g data-v-423bf9ae="" id="c00a5582-a467-4d0d-bafb-d80dc38de043" fill="black" transform="matrix(3.7688439772745177,0,0,3.7688439772745177,107.36180677563902,-44.47235647816481)"><path d="M10.00 28.25L9.24 28L0.84 28L0.84 27.57L2.16 26.53L2.16 18.05L0.70 17.56L0.98 17.00L9.10 17.00L9.86 16.74L9.86 19.96L9.44 20.10L7.77 17.63L3.91 17.63L3.91 22.06L6.10 22.06L7.13 20.27L7.56 20.27L7.56 24.53L7 24.81L6.12 22.69L3.91 22.69L3.91 27.37L7.71 27.37L9.58 24.61L10.00 24.75L10.00 28.25ZM19.74 27.44L19.46 28L16.80 28L16.80 26.78L15.22 28.03L15.22 28.03Q14.94 28.14 14.52 28.14L14.52 28.14L14.52 28.14Q13.31 28.14 12.78 27.54L12.78 27.54L12.78 27.54Q12.24 26.94 12.24 26.10L12.24 26.10L12.24 26.10Q12.24 25.59 12.60 25.10L12.60 25.10L12.60 25.10Q12.96 24.61 13.64 24.18L13.64 24.18L16.80 24.18L16.80 23.28L16.80 23.28Q16.80 22.37 16.32 21.99L16.32 21.99L16.32 21.99Q15.83 21.62 14.99 21.62L14.99 21.62L14.99 21.62Q14.13 21.62 12.87 22.67L12.87 22.67L12.45 22.13L14.46 20.54L14.46 20.54Q15.02 20.43 15.81 20.43L15.81 20.43L15.81 20.43Q17.08 20.43 17.78 21.05L17.78 21.05L17.78 21.05Q18.48 21.67 18.48 22.86L18.48 22.86L18.48 26.95L19.74 27.44ZM14.97 26.95L14.97 26.95Q15.82 26.95 16.80 26.17L16.80 26.17L16.80 24.75L14.32 24.75L14.32 24.75Q14.14 24.98 14.06 25.20L14.06 25.20L14.06 25.20Q13.99 25.42 13.99 25.69L13.99 25.69L13.99 25.69Q13.99 26.21 14.25 26.58L14.25 26.58L14.25 26.58Q14.52 26.95 14.97 26.95L14.97 26.95ZM25.37 26.49L25.37 26.49Q25.37 26.10 24.93 25.77L24.93 25.77L24.93 25.77Q24.50 25.44 23.60 24.98L23.60 24.98L23.60 24.98Q22.88 24.60 22.43 24.32L22.43 24.32L22.43 24.32Q21.98 24.04 21.67 23.67L21.67 23.67L21.67 23.67Q21.35 23.30 21.35 22.86L21.35 22.86L21.35 22.86Q21.35 22.36 21.77 21.78L21.77 21.78L21.77 21.78Q22.19 21.21 22.81 20.82L22.81 20.82L22.81 20.82Q23.42 20.43 23.95 20.43L23.95 20.43L23.95 20.43Q24.60 20.43 25.45 20.59L25.45 20.59L25.45 20.59Q26.29 20.75 26.67 20.94L26.67 20.94L26.67 23.10L26.14 23.10L26.14 23.10Q25.69 22.23 25.10 21.75L25.10 21.75L25.10 21.75Q24.51 21.27 23.90 21.27L23.90 21.27L23.90 21.27Q23.46 21.27 23.20 21.50L23.20 21.50L23.20 21.50Q22.93 21.73 22.93 22.08L22.93 22.08L22.93 22.08Q22.93 22.51 23.39 22.86L23.39 22.86L23.39 22.86Q23.84 23.20 24.77 23.66L24.77 23.66L24.77 23.66Q25.48 24.02 25.91 24.29L25.91 24.29L25.91 24.29Q26.35 24.56 26.65 24.91L26.65 24.91L26.65 24.91Q26.95 25.27 26.95 25.70L26.95 25.70L26.95 25.70Q26.95 26.22 26.51 26.79L26.51 26.79L26.51 26.79Q26.07 27.36 25.43 27.75L25.43 27.75L25.43 27.75Q24.79 28.14 24.26 28.14L24.26 28.14L24.26 28.14Q23.58 28.14 22.63 27.98L22.63 27.98L22.63 27.98Q21.69 27.82 21.28 27.62L21.28 27.62L21.28 25.47L21.81 25.47L21.81 25.47Q22.30 26.33 22.97 26.82L22.97 26.82L22.97 26.82Q23.65 27.30 24.33 27.30L24.33 27.30L24.33 27.30Q24.79 27.30 25.08 27.06L25.08 27.06L25.08 27.06Q25.37 26.82 25.37 26.49L25.37 26.49ZM36.08 20.57L36.08 21L32.54 28L29.62 31.70L29.09 31.28L29.09 31.28Q29.89 30.42 30.30 29.78L30.30 29.78L30.30 29.78Q30.72 29.13 30.88 28.48L30.88 28.48L30.88 28.48Q31.05 27.83 31.05 26.94L31.05 26.94L29.29 22.67L27.99 21.91L27.99 21.48L30.38 20.30L30.91 22.41L32.62 26.59L34.59 22.48L32.73 21.13L33.01 20.57L36.08 20.57ZM40.71 27.44L40.43 28L36.53 28L36.53 27.57L37.77 26.59L37.77 17.98L36.53 17.11L36.53 16.67L38.92 15.78L39.45 15.78L39.45 26.95L40.71 27.44ZM46.16 27.44L45.88 28L41.97 28L41.97 27.57L43.22 26.59L43.22 22.50L41.97 21.63L41.97 21.20L44.37 20.30L44.90 20.30L44.90 26.95L46.16 27.44ZM44.00 16.10L44.00 16.10Q44.42 16.10 44.70 16.41L44.70 16.41L44.70 16.41Q44.97 16.72 44.97 17.18L44.97 17.18L44.97 17.18Q44.97 17.50 44.77 17.79L44.77 17.79L44.77 17.79Q44.58 18.07 44.28 18.24L44.28 18.24L44.28 18.24Q43.99 18.41 43.71 18.41L43.71 18.41L43.71 18.41Q43.29 18.41 43.02 18.10L43.02 18.10L43.02 18.10Q42.74 17.79 42.74 17.33L42.74 17.33L42.74 17.33Q42.74 17.01 42.94 16.72L42.94 16.72L42.94 16.72Q43.13 16.44 43.43 16.27L43.43 16.27L43.43 16.27Q43.72 16.10 44.00 16.10L44.00 16.10ZM51.93 26.49L51.93 26.49Q51.93 26.10 51.49 25.77L51.49 25.77L51.49 25.77Q51.06 25.44 50.16 24.98L50.16 24.98L50.16 24.98Q49.43 24.60 48.99 24.32L48.99 24.32L48.99 24.32Q48.54 24.04 48.22 23.67L48.22 23.67L48.22 23.67Q47.91 23.30 47.91 22.86L47.91 22.86L47.91 22.86Q47.91 22.36 48.33 21.78L48.33 21.78L48.33 21.78Q48.75 21.21 49.36 20.82L49.36 20.82L49.36 20.82Q49.98 20.43 50.51 20.43L50.51 20.43L50.51 20.43Q51.16 20.43 52.00 20.59L52.00 20.59L52.00 20.59Q52.85 20.75 53.23 20.94L53.23 20.94L53.23 23.10L52.70 23.10L52.70 23.10Q52.25 22.23 51.66 21.75L51.66 21.75L51.66 21.75Q51.07 21.27 50.46 21.27L50.46 21.27L50.46 21.27Q50.02 21.27 49.76 21.50L49.76 21.50L49.76 21.50Q49.49 21.73 49.49 22.08L49.49 22.08L49.49 22.08Q49.49 22.51 49.94 22.86L49.94 22.86L49.94 22.86Q50.40 23.20 51.32 23.66L51.32 23.66L51.32 23.66Q52.04 24.02 52.47 24.29L52.47 24.29L52.47 24.29Q52.91 24.56 53.21 24.91L53.21 24.91L53.21 24.91Q53.51 25.27 53.51 25.70L53.51 25.70L53.51 25.70Q53.51 26.22 53.07 26.79L53.07 26.79L53.07 26.79Q52.63 27.36 51.99 27.75L51.99 27.75L51.99 27.75Q51.35 28.14 50.82 28.14L50.82 28.14L50.82 28.14Q50.13 28.14 49.19 27.98L49.19 27.98L49.19 27.98Q48.24 27.82 47.84 27.62L47.84 27.62L47.84 25.47L48.37 25.47L48.37 25.47Q48.86 26.33 49.53 26.82L49.53 26.82L49.53 26.82Q50.20 27.30 50.89 27.30L50.89 27.30L50.89 27.30Q51.35 27.30 51.64 27.06L51.64 27.06L51.64 27.06Q51.93 26.82 51.93 26.49L51.93 26.49ZM60.65 26.91L59.23 28.03L59.23 28.03Q58.91 28.14 58.45 28.14L58.45 28.14L58.45 28.14Q57.29 28.14 56.75 27.53L56.75 27.53L56.75 27.53Q56.21 26.92 56.21 25.65L56.21 25.65L56.21 21.56L54.70 21.56L54.70 20.99L57.36 17.89L57.89 17.89L57.89 20.99L60.41 20.99L60.41 21.56L57.89 21.56L57.89 25.82L57.89 25.82Q57.89 26.95 58.98 26.95L58.98 26.95L58.98 26.95Q59.28 26.95 59.55 26.82L59.55 26.82L59.55 26.82Q59.82 26.70 60.23 26.38L60.23 26.38L60.65 26.91Z"></path></g><!----><g data-v-423bf9ae="" id="60ec7120-c7e4-4f39-8a01-8ff9c54de28d" transform="matrix(2.8125,0,0,2.8125,0,0)" stroke="none" fill="black"><path d="M11.579 32H32L21.789 14.314z"></path><circle cx="8.683" cy="8.683" r="8.683"></circle></g><!----></svg>